<?xml version="1.0" standalone="no"?>
<!DOCTYPE svg PUBLIC "-//W3C//DTD SVG 20010904//EN"
 "http://www.w3.org/TR/2001/REC-SVG-20010904/DTD/svg10.dtd">
<svg version="1.0" xmlns="http://www.w3.org/2000/svg"
 width="156.000000pt" height="156.000000pt" viewBox="0 0 156.000000 156.000000"
 preserveAspectRatio="xMidYMid meet">
<metadata>
Created by potrace 1.14, written by Peter Selinger 2001-2017
</metadata>
<g transform="translate(0.000000,156.000000) scale(0.100000,-0.100000)"
fill="#000000" stroke="none">
<path d="M628 1524 c-176 -38 -339 -138 -443 -274 -77 -99 -135 -230 -153
-340 -12 -76 -6 -241 12 -310 19 -76 81 -206 128 -270 l33 -45 5 305 c6 341
10 367 78 479 70 116 178 205 308 253 86 32 272 32 362 0 404 -144 518 -643
215 -945 -89 -89 -196 -138 -355 -162 l-38 -6 0 -89 c0 -58 4 -90 12 -92 21
-7 142 12 208 33 392 123 617 537 504 929 -69 239 -255 431 -493 510 -79 27
-114 33 -206 35 -70 2 -134 -2 -177 -11z"/>
<path d="M709 1156 c-2 -3 -17 -7 -32 -10 -43 -8 -125 -57 -168 -101 -22 -22
-54 -69 -72 -105 l-32 -65 -3 -368 c-2 -268 0 -372 8 -382 10 -12 157 -75 175
-75 3 0 5 88 5 196 -1 108 1 198 3 200 2 2 26 -5 53 -16 69 -26 144 -30 216
-14 53 13 113 38 128 54 3 3 18 15 33 27 78 60 130 173 129 283 0 210 -159
373 -370 379 -37 1 -70 0 -73 -3z m144 -200 c138 -59 151 -250 24 -334 -70
-47 -184 -31 -239 32 -62 70 -62 190 0 260 44 49 149 70 215 42z"/>
</g>
</svg>
