<?xml version="1.0" standalone="no"?>
<!DOCTYPE svg PUBLIC "-//W3C//DTD SVG 20010904//EN"
 "http://www.w3.org/TR/2001/REC-SVG-20010904/DTD/svg10.dtd">
<svg version="1.0" xmlns="http://www.w3.org/2000/svg"
 width="1024.000000pt" height="1024.000000pt" viewBox="0 0 1024.000000 1024.000000"
 preserveAspectRatio="xMidYMid meet">
<metadata>
Created by potrace 1.14, written by Peter Selinger 2001-2017
</metadata>
<g transform="translate(0.000000,1024.000000) scale(0.100000,-0.100000)"
fill="#000000" stroke="none">
<path d="M4918 10235 c-2 -2 -64 -5 -138 -9 -74 -4 -146 -8 -160 -10 -14 -2
-52 -7 -85 -10 -33 -4 -71 -8 -85 -11 -14 -2 -86 -14 -160 -25 -74 -11 -142
-23 -150 -25 -8 -2 -31 -7 -50 -10 -29 -5 -89 -19 -260 -60 -69 -17 -213 -59
-286 -84 -178 -60 -209 -71 -224 -78 -8 -3 -17 -7 -20 -8 -3 -1 -14 -5 -25
-10 -11 -4 -49 -19 -85 -32 -126 -48 -522 -238 -528 -254 -2 -5 -8 -9 -14 -9
-19 0 -389 -226 -435 -265 -6 -5 -35 -26 -63 -45 -100 -69 -301 -226 -381
-300 -15 -14 -51 -45 -80 -70 -104 -90 -362 -354 -454 -465 -22 -27 -45 -53
-50 -59 -57 -59 -326 -428 -400 -549 -52 -86 -99 -165 -115 -193 -33 -58 -163
-305 -165 -314 -1 -3 -18 -41 -39 -85 -79 -168 -179 -432 -249 -660 -24 -76
-101 -382 -111 -435 -2 -14 -7 -36 -10 -50 -3 -14 -8 -41 -10 -60 -3 -19 -10
-57 -15 -85 -5 -27 -13 -77 -16 -110 -4 -33 -9 -69 -11 -80 -3 -11 -7 -42 -10
-70 -3 -27 -7 -60 -9 -72 -24 -145 -24 -884 0 -1011 1 -9 6 -48 9 -87 4 -38
10 -83 12 -100 3 -16 7 -39 9 -50 2 -11 6 -36 9 -55 3 -19 8 -53 11 -75 23
-162 115 -539 176 -720 34 -99 104 -293 124 -340 82 -198 213 -470 290 -600
22 -38 44 -77 48 -85 4 -8 25 -42 47 -75 22 -33 43 -68 46 -77 4 -10 10 -18
15 -18 5 0 9 -7 9 -15 0 -8 4 -15 8 -15 5 0 16 -15 25 -32 9 -18 32 -53 50
-78 72 -100 181 -245 186 -250 3 -3 18 -21 33 -42 15 -20 33 -42 40 -50 7 -7
38 -43 68 -78 132 -157 448 -471 555 -553 5 -4 26 -21 45 -38 19 -17 51 -43
70 -57 19 -15 37 -30 40 -33 28 -33 484 -348 540 -372 8 -4 33 -18 55 -32 286
-177 761 -380 1155 -494 110 -31 324 -85 375 -94 17 -3 82 -15 145 -26 63 -11
149 -24 190 -30 41 -6 91 -12 110 -15 137 -20 350 -31 600 -30 201 0 453 9
513 19 12 2 45 6 72 9 66 7 294 42 400 61 262 47 736 191 990 300 123 53 308
137 321 147 6 5 40 22 75 40 71 35 291 159 299 169 3 3 28 19 55 35 28 15 59
36 69 46 11 10 24 18 29 18 5 0 19 8 32 17 12 10 33 25 45 33 109 73 355 263
460 356 141 125 334 315 440 434 36 40 73 82 83 92 10 11 65 79 123 151 102
129 116 147 142 184 7 10 36 52 65 93 60 85 191 292 228 360 13 25 26 47 30
50 8 7 191 377 213 430 11 25 27 63 37 85 53 119 165 444 207 600 54 200 64
239 68 260 1 11 12 63 23 115 11 52 22 115 26 140 3 25 13 86 21 135 8 50 17
117 20 150 3 33 7 71 9 84 24 148 25 855 1 1001 -3 14 -7 52 -10 85 -3 33 -8
69 -10 81 -2 12 -7 45 -11 75 -3 30 -8 61 -10 69 -3 8 -7 31 -9 50 -5 30 -22
125 -41 225 -3 17 -11 48 -17 70 -5 22 -11 47 -13 55 -2 8 -10 40 -18 70 -8
30 -25 91 -37 135 -11 44 -41 139 -66 210 -25 72 -46 135 -48 140 -1 6 -9 26
-18 45 -8 19 -21 53 -28 75 -7 22 -26 68 -41 103 -16 34 -29 65 -29 68 0 3
-32 72 -71 153 -39 80 -70 148 -70 151 0 3 -6 12 -13 20 -6 8 -21 33 -31 55
-11 22 -38 69 -59 105 -40 67 -71 120 -90 155 -38 70 -288 422 -355 500 -14
17 -42 51 -61 75 -19 23 -46 55 -60 70 -14 15 -47 53 -75 85 -114 134 -364
373 -535 514 -14 11 -32 27 -40 34 -8 7 -53 42 -100 78 -47 35 -87 67 -90 70
-20 23 -374 256 -376 248 -1 -2 -10 3 -20 12 -25 21 -116 74 -239 139 -55 29
-107 57 -115 62 -27 14 -233 109 -285 130 -27 11 -63 26 -80 33 -116 49 -389
143 -513 175 -40 11 -76 21 -80 24 -5 3 -19 7 -33 10 -13 2 -71 15 -129 29
-149 36 -196 45 -270 57 -36 5 -76 12 -90 15 -84 15 -311 41 -440 51 -80 6
-567 13 -572 9z"/>
</g>
</svg>
